<svg width="64" height="64" viewBox="0 0 64 64" fill="none" xmlns="http://www.w3.org/2000/svg">
  <!-- Background circle -->
  <circle cx="32" cy="32" r="30" fill="#2563eb" stroke="#1d4ed8" stroke-width="2"/>
  
  <!-- Briefcase/Work icon -->
  <rect x="18" y="24" width="28" height="20" rx="2" fill="#ffffff" stroke="#e5e7eb" stroke-width="1"/>
  <rect x="18" y="24" width="28" height="6" fill="#f3f4f6"/>
  
  <!-- Handle -->
  <rect x="28" y="20" width="8" height="4" rx="1" fill="#ffffff" stroke="#e5e7eb" stroke-width="1"/>
  
  <!-- People icons inside briefcase -->
  <circle cx="26" cy="36" r="3" fill="#2563eb"/>
  <path d="M20 42c0-3.3 2.7-6 6-6s6 2.7 6 6" fill="#2563eb"/>
  
  <circle cx="38" cy="36" r="3" fill="#2563eb"/>
  <path d="M32 42c0-3.3 2.7-6 6-6s6 2.7 6 6" fill="#2563eb"/>
  
  <!-- Small gear icon for management -->
  <circle cx="50" cy="18" r="8" fill="#10b981"/>
  <path d="M46 18h8M50 14v8M47.5 15.5l5 5M52.5 15.5l-5 5" stroke="#ffffff" stroke-width="1.5" stroke-linecap="round"/>
</svg>
